<?xml version="1.0" encoding="UTF-8"?>
<svg xmlns="http://www.w3.org/2000/svg" width="186" height="46" viewBox="0 0 186 46" fill="none">
  <rect width="140" height="46" rx="23" fill="#3FA9DB"></rect>
  <path d="M43.976 30.162C42.812 30.162 41.846 29.982 41.078 29.622C40.31 29.262 39.734 28.764 39.35 28.128C38.966 27.48 38.768 26.736 38.756 25.896H40.772C40.784 26.448 40.904 26.934 41.132 27.354C41.372 27.762 41.726 28.074 42.194 28.29C42.662 28.506 43.268 28.614 44.012 28.614C44.936 28.614 45.674 28.446 46.226 28.11C46.79 27.774 47.072 27.258 47.072 26.562C47.072 26.166 47.012 25.836 46.892 25.572C46.772 25.308 46.574 25.092 46.298 24.924C46.034 24.744 45.68 24.594 45.236 24.474C44.792 24.354 44.252 24.24 43.616 24.132C42.86 24 42.194 23.844 41.618 23.664C41.054 23.472 40.58 23.238 40.196 22.962C39.824 22.674 39.542 22.326 39.35 21.918C39.158 21.51 39.062 21.03 39.062 20.478C39.062 19.71 39.254 19.044 39.638 18.48C40.022 17.916 40.574 17.484 41.294 17.184C42.014 16.884 42.878 16.734 43.886 16.734C44.894 16.734 45.752 16.896 46.46 17.22C47.168 17.532 47.714 17.976 48.098 18.552C48.482 19.116 48.68 19.788 48.692 20.568H46.694C46.682 20.04 46.55 19.608 46.298 19.272C46.058 18.924 45.722 18.666 45.29 18.498C44.87 18.33 44.378 18.246 43.814 18.246C43.238 18.246 42.746 18.33 42.338 18.498C41.942 18.654 41.636 18.882 41.42 19.182C41.204 19.47 41.096 19.812 41.096 20.208C41.096 20.688 41.21 21.06 41.438 21.324C41.678 21.588 42.056 21.798 42.572 21.954C43.088 22.098 43.766 22.248 44.606 22.404C45.194 22.488 45.752 22.608 46.28 22.764C46.82 22.92 47.3 23.136 47.72 23.412C48.152 23.688 48.488 24.066 48.728 24.546C48.98 25.014 49.106 25.626 49.106 26.382C49.106 27.126 48.908 27.786 48.512 28.362C48.128 28.926 47.552 29.37 46.784 29.694C46.028 30.006 45.092 30.162 43.976 30.162ZM54.5264 30.162C53.8184 30.162 53.2064 30.024 52.6904 29.748C52.1744 29.46 51.7784 29.034 51.5024 28.47C51.2384 27.894 51.1064 27.186 51.1064 26.346V20.478H52.9604V25.878C52.9604 26.466 53.0324 26.964 53.1764 27.372C53.3324 27.78 53.5784 28.092 53.9144 28.308C54.2504 28.512 54.6824 28.614 55.2104 28.614C55.7384 28.614 56.1944 28.488 56.5784 28.236C56.9744 27.984 57.2804 27.63 57.4964 27.174C57.7124 26.718 57.8204 26.202 57.8204 25.626V20.478H59.6744V30H57.9104L57.8204 28.074H57.7124C57.4724 28.722 57.0644 29.232 56.4884 29.604C55.9124 29.976 55.2584 30.162 54.5264 30.162ZM67.3847 30.162C66.8567 30.162 66.3707 30.078 65.9267 29.91C65.4947 29.742 65.1287 29.508 64.8287 29.208C64.5287 28.896 64.3007 28.536 64.1447 28.128H64.0367L63.9647 30H62.1827V16.878H64.0367V22.35H64.1447C64.3727 21.738 64.7687 21.246 65.3327 20.874C65.8967 20.502 66.5807 20.316 67.3847 20.316C67.9607 20.316 68.4827 20.424 68.9507 20.64C69.4307 20.856 69.8447 21.174 70.1927 21.594C70.5407 22.014 70.8047 22.53 70.9847 23.142C71.1767 23.754 71.2727 24.456 71.2727 25.248C71.2727 26.304 71.1047 27.198 70.7687 27.93C70.4447 28.662 69.9887 29.22 69.4007 29.604C68.8247 29.976 68.1527 30.162 67.3847 30.162ZM66.7367 28.632C67.2647 28.632 67.7267 28.506 68.1227 28.254C68.5187 28.002 68.8247 27.624 69.0407 27.12C69.2567 26.616 69.3647 25.992 69.3647 25.248C69.3647 24.684 69.2987 24.192 69.1667 23.772C69.0467 23.34 68.8727 22.986 68.6447 22.71C68.4167 22.422 68.1407 22.206 67.8167 22.062C67.4927 21.918 67.1327 21.846 66.7367 21.846C66.1487 21.846 65.6507 21.984 65.2427 22.26C64.8467 22.524 64.5467 22.878 64.3427 23.322C64.1507 23.754 64.0547 24.216 64.0547 24.708V25.77C64.0547 26.262 64.1507 26.73 64.3427 27.174C64.5467 27.606 64.8467 27.96 65.2427 28.236C65.6507 28.5 66.1487 28.632 66.7367 28.632ZM73.2218 30V20.478H74.9858L75.0578 22.368H75.1658C75.4298 21.696 75.8438 21.192 76.4078 20.856C76.9838 20.508 77.6198 20.334 78.3158 20.334C79.0118 20.334 79.6358 20.502 80.1878 20.838C80.7518 21.174 81.1538 21.75 81.3938 22.566H81.5378C81.8018 21.822 82.2338 21.264 82.8338 20.892C83.4458 20.52 84.1298 20.334 84.8858 20.334C85.5098 20.334 86.0678 20.466 86.5598 20.73C87.0638 20.994 87.4598 21.42 87.7478 22.008C88.0358 22.596 88.1798 23.376 88.1798 24.348V30H86.3438V24.726C86.3438 24.078 86.2658 23.544 86.1098 23.124C85.9538 22.692 85.7198 22.374 85.4078 22.17C85.0958 21.966 84.6878 21.864 84.1838 21.864C83.6678 21.864 83.2178 21.996 82.8338 22.26C82.4498 22.524 82.1498 22.878 81.9338 23.322C81.7298 23.754 81.6278 24.246 81.6278 24.798V30H79.7738V24.726C79.7738 24.078 79.6958 23.544 79.5398 23.124C79.3838 22.692 79.1498 22.374 78.8378 22.17C78.5258 21.966 78.1238 21.864 77.6318 21.864C77.1038 21.864 76.6478 21.996 76.2638 22.26C75.8798 22.524 75.5798 22.878 75.3638 23.322C75.1598 23.754 75.0578 24.246 75.0578 24.798V30H73.2218ZM90.6769 30V20.478H92.5309V30H90.6769ZM90.6769 19.02V16.878H92.5309V19.02H90.6769ZM97.8245 30C97.2965 30 96.8825 29.928 96.5825 29.784C96.2825 29.628 96.0725 29.4 95.9525 29.1C95.8325 28.8 95.7725 28.44 95.7725 28.02V21.99H93.9725V20.478H95.7725V17.724L97.6265 17.508V20.478H99.7325V21.99H97.6265V27.678C97.6265 28.002 97.6865 28.218 97.8065 28.326C97.9265 28.422 98.1365 28.47 98.4365 28.47H99.7325V30H97.8245Z" fill="white"></path>
  <circle cx="163" cy="23" r="22.5" stroke="#3FA9DB"></circle>
  <path d="M162.926 14.1206L171.977 23.1722M171.977 23.1722L162.926 32.2239M171.977 23.1722H153.874" stroke="#3FA9DB" stroke-width="2.08617" stroke-linecap="round" stroke-linejoin="round"></path>
</svg>
